<?xml version="1.0" encoding="UTF-8" standalone="no"?>
<svg
   xmlns:dc="http://purl.org/dc/elements/1.1/"
   xmlns:cc="http://creativecommons.org/ns#"
   xmlns:rdf="http://www.w3.org/1999/02/22-rdf-syntax-ns#"
   xmlns:svg="http://www.w3.org/2000/svg"
   xmlns="http://www.w3.org/2000/svg"
   viewBox="0 0 237.98801 260.66132"
   height="260.66132"
   width="237.98801"
   xml:space="preserve"
   id="svg2"
   version="1.1"><metadata
     id="metadata8"><rdf:RDF><cc:Work
         rdf:about=""><dc:format>image/svg+xml</dc:format><dc:type
           rdf:resource="http://purl.org/dc/dcmitype/StillImage" /></cc:Work></rdf:RDF></metadata><defs
     id="defs6"><clipPath
       id="clipPath18"
       clipPathUnits="userSpaceOnUse"><path
         id="path16"
         d="M 0,195.496 H 178.491 V 0 H 0 Z" /></clipPath></defs><g
     transform="matrix(1.3333333,0,0,-1.3333333,0,260.66133)"
     id="g10"><g
       id="g12"><g
         clip-path="url(#clipPath18)"
         id="g14"><g
           transform="translate(167.851,42.1113)"
           id="g20"><path
             id="path22"
             style="fill:#3777c5;fill-opacity:1;fill-rule:nonzero;stroke:none"
             d="m 0,0 c 0.011,-5.26 -4.249,-9.54 -9.517,-9.56 l -139.414,-0.392 c -5.273,-0.008 -9.548,4.251 -9.563,9.511 l -0.394,139.412 c -0.013,5.273 4.251,9.556 9.517,9.576 l 139.421,0.384 c 5.266,0.015 9.541,-4.247 9.556,-9.514 z" /></g><g
           transform="translate(118.3138,174.7707)"
           id="g24"><path
             id="path26"
             style="fill:#ffffff;fill-opacity:1;fill-rule:nonzero;stroke:none"
             d="m 0,0 c -6.991,6.839 -9.728,8.536 -12.586,8.577 -0.95,-0.003 -1.751,-0.205 -2.563,-0.376 -1.601,-0.324 -2.744,-0.486 -3.463,-0.571 -0.162,-0.021 -0.304,-0.032 -0.433,-0.044 -1.521,1.941 -7.238,8.435 -16.36,8.464 -1.921,-0.006 -3.977,-0.311 -6.134,-1.012 -13.822,-4.501 -23.054,-15.218 -25.096,-23.041 -0.829,-3.265 -1.413,-6.976 -1.405,-10.594 0.012,-4.631 0.991,-9.172 3.95,-12.303 2.831,-2.978 6.042,-4.895 8.295,-6.002 0.109,-1.081 0.286,-2.137 0.564,-3.09 l 0.073,-0.247 0.162,-0.193 c 0.471,-0.556 0.51,-0.817 0.51,-0.938 0.054,-0.187 -0.304,-0.761 -0.989,-1.694 -0.644,-0.924 -1.413,-2.284 -1.406,-4.169 0,-0.45 0.054,-0.929 0.15,-1.437 0.434,-2.383 0.785,-3.656 1.764,-4.608 0.808,-0.706 1.56,-0.868 2.443,-1.146 0.217,-4.086 2.093,-7.663 4.805,-10.444 -0.476,-0.021 -0.989,-0.077 -1.594,-0.191 -1.045,-0.2 -1.895,-0.293 -2.613,-0.298 -2.199,-0.003 -3.482,0.77 -6.462,2.495 l -3.658,2.116 2.049,-3.697 c 1.664,-2.701 0.08,-6.579 2.41,-10.761 1.085,-1.743 2.735,-3.199 4.507,-3.853 -2.866,-2.392 -5.029,-2.175 -9.597,-2.853 -0.021,0 -0.198,-0.007 -0.394,-0.007 h -0.435 c -0.256,-0.008 -0.536,-0.008 -0.848,-0.057 -0.156,-0.038 -0.334,-0.062 -0.604,-0.214 -0.245,-0.12 -0.665,-0.582 -0.645,-1.127 0.008,-0.178 0.032,-0.296 0.062,-0.353 0.081,-0.436 0.528,-0.819 0.827,-0.912 0.297,-0.111 0.517,-0.111 0.687,-0.12 0.372,0.014 0.658,0.061 0.765,0.066 1.792,-0.337 1.821,-2.112 4.102,-3.711 1.695,-1.209 3.678,-1.837 5.787,-1.823 2.329,0.011 4.773,0.748 7.407,2.069 4.453,2.203 6.883,5.602 7.594,9.746 2.343,-1.656 4.867,-4.327 7.23,-6.785 2.952,-2.944 5.388,-5.751 8.356,-5.91 h 0.019 c 0.666,0.007 1.343,0.209 1.9,0.625 2.771,2.349 1.996,6.103 7.644,13.125 4.283,5.492 10.86,9.146 12.775,15.628 l 0.015,0.049 c 0.041,0.139 0.067,0.314 0.067,0.518 -0.056,1.152 -0.795,1.783 -1.454,2.267 -1.221,0.841 -2.903,1.438 -4.1,1.795 0.966,3.093 1.264,6.369 1.589,9.437 1.977,0.66 3.468,2.241 4.127,4.247 0.178,0.564 0.253,1.112 0.253,1.63 -0.008,0.77 -0.17,1.462 -0.376,2.106 1.928,1.447 4.046,3.679 5.423,7.071 1.283,3.19 2.322,7.89 2.317,13.029 C 7.385,-12.903 5.593,-5.495 0,0" /></g><g
           transform="translate(117.4923,173.9371)"
           id="g28"><path
             id="path30"
             style="fill:#110f0d;fill-opacity:1;fill-rule:nonzero;stroke:none"
             d="m 0,0 c -9.401,9.223 -10.813,8.562 -14.09,7.892 -3.271,-0.675 -4.679,-0.677 -4.679,-0.677 0,0 -8.17,11.878 -21.584,7.544 -13.427,-4.335 -22.468,-14.936 -24.328,-22.216 -1.846,-7.277 -2.441,-16.861 2.256,-21.803 2.944,-3.102 6.384,-5.033 8.536,-6.037 0.077,-1.229 0.286,-2.447 0.598,-3.536 2.701,-3.137 -2.41,-3.558 -1.478,-8.791 0.842,-4.72 1.526,-4.128 4.222,-5.132 -0.028,-5.335 3.047,-9.851 7.275,-12.805 -0.575,-0.105 -0.943,-0.229 -1.154,-0.348 -0.53,0.549 -1.467,0.992 -3.842,0.533 -4.508,-0.873 -6.027,0.104 -9.882,2.338 1.88,-3.396 0.299,-7.22 2.389,-10.738 1.398,-2.36 4.413,-4.175 6.136,-3.53 -4.073,-4.519 -6.836,-4.183 -12.069,-4.931 -0.61,-0.09 -2.01,0.101 -1.9,-0.278 0.095,-0.375 0.965,-0.049 1.363,-0.138 2.574,-0.587 2.791,-2.839 4.487,-3.858 3.368,-2.376 7.262,-2.127 12.07,0.289 4.806,2.427 6.895,5.983 7.155,10.667 6.754,-3.517 13.934,-15.862 17.809,-13.083 1.996,1.439 1.697,5.734 7.4,12.906 4.511,5.67 10.915,9.372 12.556,15.21 0.523,1.821 -4.885,3.278 -5.866,3.528 1.32,3.491 1.63,7.398 2.041,11.144 1.973,0.391 3.433,1.759 4.084,3.698 0.434,1.329 0.068,2.603 -0.386,3.821 1.945,1.303 4.295,3.495 5.722,7.046 C 7.629,-24.341 9.409,-9.231 0,0" /></g><g
           transform="translate(113.0804,155.0898)"
           id="g32"><path
             id="path34"
             style="fill:#ffffff;fill-opacity:1;fill-rule:nonzero;stroke:none"
             d="m 0,0 c 1.542,-1.728 3.455,-1.144 4.146,0.669 1.548,4.054 -0.978,14.536 -4.099,15.522 -3.135,0.982 -2.817,1.314 -4.079,3.618 -1.255,2.312 -4.236,5.277 -6.577,4.941 -2.336,-0.337 -8.432,-2.994 -8.432,-2.994 0,0 -4.391,7.588 -10.329,8.237 -5.94,0.641 -15.965,2.093 -24.042,-8.338 -8.078,-10.425 -9.244,-26.261 1.861,-34.022 0.839,-0.587 1.566,-0.999 2.212,-1.314 0.257,1.378 0.827,2.64 1.872,3.574 -0.087,0.51 -0.17,1.072 -0.244,1.707 -0.637,5.612 -1.268,8.256 0.298,9.58 1.548,1.328 0.618,0.334 0.312,-2.31 -0.175,-1.542 0.502,-5.199 1.094,-7.993 1.228,0.746 2.518,1.362 3.862,1.887 0.094,0.407 2.987,0.668 4.02,0.794 0.343,0.041 0.433,0.004 0.459,-0.057 3.422,1.697 7.861,3.543 11.195,3.773 2.72,0.187 5.801,0.079 8.429,-0.215 0.094,0.055 0.198,0.103 0.264,0.171 0.449,0.455 3.163,1.066 4.522,0.164 0.842,-0.558 0.765,-1.114 0.754,-1.57 0.536,-0.24 1.113,-0.524 1.703,-0.84 0.433,0.087 0.922,0.253 1.465,0.464 -0.047,-0.212 1.758,0.29 3.327,0.693 0.149,1.297 0.013,2.597 -0.897,3.174 -2.077,1.316 -7.065,1.004 -5.973,1.632 1.087,0.627 5.96,1.34 5.973,1.012 0,-0.334 -0.013,2.64 -0.013,2.64 0,0 -3.455,2.631 -8.852,3.926 -2.158,0.508 -2.789,-0.97 -7.262,-1.168 -4.48,-0.189 -5.96,1.089 -8.566,0.422 -6.075,-1.558 -10.426,-3.724 -10.032,-3.173 0.564,0.792 1.717,1.504 2.945,2.409 2.112,1.562 -0.841,5.24 1.141,5.672 1.968,0.43 5.539,-4.391 14.503,-3.898 8.963,0.499 8.473,4.21 9.472,3.607 1.044,-0.626 1.643,-3.52 5.226,-5.49 3.596,-1.967 6.326,0.706 8.049,-1.897 C 1.229,2.688 -1.12,1.259 0,0" /></g><g
           transform="translate(75.5233,107.4297)"
           id="g36"><path
             id="path38"
             style="fill:#ed1f27;fill-opacity:1;fill-rule:nonzero;stroke:none"
             d="m 0,0 c -3.801,0.296 -0.853,-1.622 -1.995,-4.091 -0.531,-1.143 -1.262,-2.372 -0.598,-1.847 1.385,1.099 4.006,-1.861 4.516,-0.891 1.37,2.679 0.506,5.098 -0.687,6.203 -0.312,0.175 -0.638,0.351 -0.95,0.541 C 0.191,-0.062 0.096,-0.01 0,0 m -2.246,-8.359 c -0.442,-0.205 -1.066,-0.556 -1.678,-0.919 -4.064,-4.218 -8.66,-4.789 -15.257,-5.736 -0.612,-0.088 -1.494,-0.15 -1.385,-0.533 0.093,-0.374 1.478,0.865 5.768,-2.599 2.798,-2.268 6.571,-1.593 8.737,-0.502 6.442,3.244 4.786,8.502 7.045,10.707 -0.767,0.268 -1.981,0.173 -3.23,-0.418 m -1.943,-0.03 c 0.049,0.183 0.071,0.348 0.022,0.46 -0.175,0.446 1.384,4.399 1.384,5.061 0,0.411 -0.013,1.493 -0.013,2.258 -0.013,0.008 -0.054,0.023 -0.067,0.03 -7.454,0.58 -7.944,-0.88 -13.962,3.613 4.118,-5.744 2.388,-14.227 12.636,-11.422 M 30.369,2.722 c 0.08,0.067 0.162,0.136 0.245,0.2 1.099,-0.944 1.982,-2.378 0.571,-3.573 C 30.076,-1.599 28.291,-2.24 24.92,-9.63 21.552,-17.018 22.739,-19.237 19.822,-20.697 15.524,-22.87 10.671,-7.596 4.079,-6.963 l 0.896,4.65 c 7.813,-2.816 16.596,-1.534 25.394,5.035" /></g><g
           transform="translate(84.3206,149.2897)"
           id="g40"><path
             id="path42"
             style="fill:#ffffff;fill-opacity:1;fill-rule:nonzero;stroke:none"
             d="m 0,0 c 0.489,-1.367 -1.82,-1.12 -1.058,-2.606 -0.747,-1.684 -2.541,-2.457 -2.41,-4.362 -0.448,-0.613 -3.252,-1.118 -4.44,-0.268 -1.302,0.937 -2.273,3.387 1.404,4.99 0,0.997 2.541,1.42 3.218,1.89 C -1.872,-0.862 -1.305,0.899 0,0" /></g><g
           transform="translate(98.2763,150.2523)"
           id="g44"><path
             id="path46"
             style="fill:#ffffff;fill-opacity:1;fill-rule:nonzero;stroke:none"
             d="M 0,0 C -1.574,-2.506 1.766,-3.049 0.935,-5.66 0.394,-5.959 0.17,-6.749 -0.706,-6.515 c -0.651,1.767 -4.392,0.271 -4.179,2.58 -3.396,0.444 -0.816,2.808 -1.21,4.676 C -3.881,0.15 -1.738,2.492 0,0" /></g><g
           transform="translate(111.1463,146.9787)"
           id="g48"><path
             id="path50"
             style="fill:#ffffff;fill-opacity:1;fill-rule:nonzero;stroke:none"
             d="M 0,0 C 0.286,-1.633 0.786,-4.344 -0.971,-4.946 L -4.604,-5.059 C -5.369,-3.01 -5.621,-0.85 -6.084,1.646 -4.215,2.984 -1.154,2.47 0,0" /></g><g
           transform="translate(72.2391,146.755)"
           id="g52"><path
             id="path54"
             style="fill:#ffffff;fill-opacity:1;fill-rule:nonzero;stroke:none"
             d="m 0,0 c -5.796,-6.147 3.767,-7.14 -0.17,-9.816 -3.931,-2.677 -3.536,-1.271 -5.838,-2.623 -1.635,2.587 -2.546,5.334 -1.261,7.761 C -5.554,-1.454 -2.776,-0.801 0,0" /></g><g
           transform="translate(100.2571,116.8305)"
           id="g56"><path
             id="path58"
             style="fill:#ffffff;fill-opacity:1;fill-rule:nonzero;stroke:none"
             d="m 0,0 c -4.105,-0.719 -9.313,0.711 -9.107,3.502 2.667,0.86 3.298,2.784 3.509,3.86 C -2.587,4.794 2.357,7.311 2.975,11.18 6.203,8.18 7.875,1.385 0,0" /></g><g
           transform="translate(81.5567,113.5665)"
           id="g60"><path
             id="path62"
             style="fill:#ffffff;fill-opacity:1;fill-rule:nonzero;stroke:none"
             d="M 0,0 C 4.136,0.575 8.513,3.849 7.365,6.401 5.668,6.432 4.001,7.96 3.891,9.525 1.774,5.598 -4.709,6.064 -6.617,9.484 -8.626,5.565 -8.544,-1.189 0,0" /></g><g
           transform="translate(91.4895,117.5502)"
           id="g64"><path
             id="path66"
             style="fill:#fde4da;fill-opacity:1;fill-rule:nonzero;stroke:none"
             d="M 0,0 C 0.325,-0.221 1.167,-0.536 1.615,-0.953 3.337,-2.555 -3.137,-3.615 -3.68,-2.114 -1.481,-0.543 -1.908,1.31 0,0 m 3.61,17.173 c -1.292,-0.003 -2.343,1.042 -2.343,2.335 -0.006,1.295 1.04,2.341 2.33,2.348 1.296,0.005 2.348,-1.042 2.356,-2.335 0,-1.292 -1.053,-2.344 -2.343,-2.348 M -9.857,15.048 c -1.282,-0.003 -2.335,1.041 -2.341,2.336 0,1.295 1.036,2.345 2.341,2.348 1.29,0.008 2.335,-1.042 2.343,-2.331 0.006,-1.297 -1.04,-2.347 -2.343,-2.353 m 24.096,0.214 c -0.38,2.894 -5.09,2.848 -5.09,2.848 4.853,4.019 1.419,3.156 2.416,8.181 L 9.793,24.349 c -2.321,-1.62 -4.323,1.509 -6.32,1.419 -0.731,0.885 -1.769,1.763 -2.476,2.812 -0.85,0.295 -1.29,0.862 -1.27,1.531 0.015,0.627 0.252,1.271 0.42,1.88 l -3.989,0.258 c -1.656,-1.684 -0.823,-5.673 -3.368,-6.829 0.123,-3.77 -3.697,-2.783 -5.959,-3.796 -1.129,0.505 -1.635,1.386 -1.82,2.428 -0.11,0.053 -0.224,0.068 -0.312,0.134 -0.705,0.511 -1.33,1.386 -1.338,2.432 -0.006,0.834 0.422,1.689 1.392,2.428 -0.556,-0.152 -0.339,0.509 -1.233,-0.477 -1.452,-3.376 2.632,-4.225 0.283,-9.815 -6.001,-5.382 -8.579,-1.968 -11.581,-5.616 -0.582,-1.545 -0.188,-3.837 0.661,-5.583 0.414,-1.167 4.148,-1.491 5.152,-1.689 -0.375,-3.275 -0.19,-7.668 2.186,-11.601 2.593,-4.294 10.548,-6.411 16.764,-6.187 3.868,0.149 4.936,4.315 2.356,5.379 -1.406,0.584 5.152,-0.414 5.994,3.456 0.173,0.754 -0.497,0.504 -1.916,1.244 -0.061,-0.021 -0.141,-0.013 -0.229,0.038 -2.765,-2.381 -4.495,-2.604 -8.01,-1.457 -6.002,-6.029 -17.214,-1.512 -12.196,8.7 0.045,-0.079 0.114,-0.164 0.168,-0.249 0.095,0.259 0.19,0.505 0.297,0.743 0.978,-1.575 2.968,-2.407 4.984,-2.443 -0.556,1.403 -0.8,3.18 -0.767,3.51 -0.203,-0.15 -2.3,-1.708 -2.681,-0.889 -0.407,0.865 5.647,4.116 5.485,3.041 -0.172,-1.07 -1.231,-1.46 -1.481,-1.691 -0.367,-1.429 -0.089,-2.552 0.68,-3.876 1.79,0.278 3.453,1.195 4.277,2.916 0,-0.029 0.013,-0.05 0.013,-0.081 0.013,0.099 0.026,0.206 0.041,0.301 0.312,-1.588 1.708,-2.79 3.394,-2.786 1.9,0.006 3.448,1.554 3.448,3.461 -0.015,1.906 -1.563,3.446 -3.469,3.438 -0.931,0 -1.787,-0.383 -2.409,-0.994 -0.042,0.387 -0.016,0.68 0.136,0.824 2.904,2.789 6.161,1.148 7.315,-0.746 0.626,-1.018 2.892,-1.409 4.751,-0.835 3.971,1.239 0.456,3.458 2.431,3.088 4.514,-0.851 4.861,1.483 4.642,3.092" /></g><g
           transform="translate(35.3816,51.6686)"
           id="g68"><path
             id="path70"
             style="fill:#110f0d;fill-opacity:1;fill-rule:nonzero;stroke:none"
             d="m 0,0 c -0.244,-0.183 -0.597,-0.373 -1.901,-0.569 -0.108,-0.007 -0.244,-0.015 -0.36,-0.015 -1.514,0.115 -5.016,0.862 -5.512,9.699 0.849,-0.738 1.941,-1.207 3.259,-1.235 0.209,0 0.448,0.013 0.687,0.041 0.094,0.026 3.026,0.443 5.022,0.582 L 1.234,1.535 C 0.603,0.598 0.231,0.157 0,0 m 28.698,21.637 c 0.678,0.345 1.71,0.76 2.328,0.716 0.474,-0.028 0.55,-0.059 0.801,-0.314 0.231,-0.288 0.239,-0.384 0.25,-0.585 0,-0.059 0,-0.138 -0.019,-0.226 -0.021,-0.603 -1.284,-2.134 -2.843,-3.216 -0.164,-0.119 -0.34,-0.248 -0.502,-0.363 z m -2.13,1.499 0.147,-0.183 h -0.012 z m 40.087,4.695 C 65.8,25.204 65.386,22.4 65.394,19.515 c 0.005,-2.742 0.406,-5.314 1.2,-7.644 -0.889,-0.054 -1.54,-0.359 -2.166,-0.724 0.015,-0.048 -1.939,-0.7 -3.901,-1.066 C 59.203,9.808 57.743,9.563 56.472,9.407 l -0.019,5.35 c 0.673,0.108 1.358,0.216 1.703,0.271 0.564,0.095 0.626,0.095 0.626,0.095 0,0 0,0.02 0.134,-0.021 0.164,-0.041 0.47,-0.134 0.931,-0.311 0.426,-0.137 0.874,-0.266 1.488,-0.271 0.799,-0.03 1.96,0.379 2.606,1.254 0.637,0.857 0.786,1.752 0.807,2.586 v 1.053 1.076 c -0.014,0.355 -0.014,0.567 -0.014,0.777 0.006,0.649 0,0.377 0.073,1.1 l 0.015,0.129 v 0.132 0.159 c 0,1.789 -1.303,3.546 -3.42,3.597 -0.705,0 -1.428,-0.247 -1.957,-0.644 -0.324,-0.249 -0.923,-0.43 -1.83,-0.55 C 57.329,25.142 56.909,25.077 56.446,25 l -0.013,2.688 c 1.357,0.498 2.864,0.793 4.21,0.793 1.259,0.006 2.34,-0.254 3.051,-0.669 0.41,-0.227 0.904,-0.396 1.496,-0.396 0.583,0 1.071,0.183 1.465,0.42 z m 45.492,8.494 0.827,0.118 c 0.075,0.018 0.075,0.018 0.155,0.018 0.349,-0.035 0.808,-0.071 1.555,-1.274 0.715,-1.2 1.4,-3.61 1.406,-7.494 0.021,-4.044 -0.7,-6.96 -1.582,-8.741 -0.883,-1.828 -1.881,-2.321 -2.159,-2.321 l -0.814,-0.125 c -0.08,0 -0.149,-0.006 -0.176,-0.006 -0.381,0.042 -0.801,0.05 -1.57,1.324 -0.711,1.27 -1.383,3.804 -1.383,7.841 -0.02,4.225 0.706,7.019 1.553,8.608 0.87,1.607 1.691,1.974 2.188,2.052 m 16.209,0.657 c -0.95,2.35 -2.294,4.395 -3.991,6.025 -1.684,1.551 -3.668,2.665 -5.858,3.322 -1.454,0.438 -2.955,0.646 -4.493,0.639 -0.823,-0.003 -1.651,-0.065 -2.479,-0.191 -2.418,-0.353 -4.738,-1.18 -6.868,-2.443 -2.175,-1.288 -4.074,-2.996 -5.634,-5.032 -1.589,-2.07 -2.817,-4.465 -3.693,-7.081 -0.896,-2.675 -1.325,-5.557 -1.317,-8.572 0,-0.529 0.041,-1.054 0.068,-1.574 -0.741,-0.077 -1.807,-0.203 -2.219,-0.26 -0.538,-0.083 -1.352,-0.26 -2.194,-0.883 -0.847,-0.61 -1.547,-1.777 -1.655,-3.026 -0.502,-3.72 -2.334,-5.083 -4.548,-5.479 l -0.827,-0.121 c -0.071,-0.013 -0.151,-0.013 -0.19,-0.013 -0.381,0.041 -0.788,0.046 -1.555,1.324 -0.713,1.267 -1.393,3.808 -1.393,7.833 -0.015,8.533 3.138,10.69 4.019,10.699 l 0.428,0.062 v 0.004 c 0.401,0.055 0.795,0.101 1.213,0.101 1.225,-0.024 2.207,-0.265 2.858,-1.247 0.646,-1.021 1.826,-1.665 3.017,-1.653 1.348,-0.017 2.687,0.858 3.229,2.155 0.278,0.65 1.621,3.847 1.873,4.469 0.198,0.527 0.442,1.026 0.455,1.925 0.014,0.633 -0.257,1.55 -0.842,2.13 -0.571,0.581 -1.166,0.811 -1.669,0.962 -0.535,0.14 -1.506,0.47 -2.227,0.66 -0.692,0.16 -1.248,0.248 -1.786,0.391 -1.12,0.294 -2.707,0.698 -4.731,0.691 -0.76,-0.003 -1.56,-0.063 -2.415,-0.191 -2.47,-0.358 -4.846,-1.223 -7.006,-2.544 -2.171,-1.331 -4.072,-3.064 -5.627,-5.117 -0.08,-0.118 -0.169,-0.252 -0.25,-0.375 0.095,0.314 0.17,0.669 0.176,1.155 -0.006,0.42 -0.054,1.049 -0.564,1.757 -0.51,0.741 -1.566,1.145 -2.24,1.097 -0.196,0 -0.374,-0.019 -0.542,-0.047 -0.674,-0.103 -19.087,-2.783 -19.916,-2.909 -0.781,-0.057 -2.071,-0.59 -2.666,-1.687 -0.556,-1.035 -0.504,-1.798 -0.53,-2.498 0.007,-0.863 0.082,-1.769 0.082,-2.982 0.006,-3.453 0.108,-8.536 0.108,-8.536 l -0.08,-4.691 0.026,-10.112 c -1.316,1.69 -3.062,3.965 -3.062,3.971 l -1.676,2.355 c 2.903,3.256 4.628,7.507 4.643,11.653 0,0.488 -0.028,0.986 -0.075,1.482 -0.386,4.244 -3.388,7.664 -7.54,8.349 -1.461,0.278 -2.921,0.419 -4.398,0.419 -4.25,-0.008 -8.582,-1.287 -13.144,-3.932 -0.901,-0.497 -1.783,-1.292 -2.244,-2.315 -0.468,-1.012 -0.511,-1.959 -0.517,-2.827 0.006,-1.145 0.114,-2.323 0.114,-3.934 0.015,-0.324 0.015,-0.852 0.022,-1.47 -0.599,0.278 -1.079,0.293 -1.42,0.306 -0.379,-0.008 -0.652,-0.049 -0.848,-0.073 -3.048,-0.448 -9.061,-1.318 -12.429,-1.809 -0.657,2.328 -2.436,4.271 -5.147,4.334 -0.119,-0.009 -0.235,-0.009 -0.351,-0.019 1.677,1.759 3.333,2.217 3.531,2.348 1.452,0.459 2.682,0.623 3.72,0.629 3.096,-0.011 4.682,-1.409 5.66,-2.532 0.732,-0.811 1.481,-1.048 2.362,-1.081 1.228,-0.064 2.669,0.914 3.097,2.212 0.365,0.907 2.197,5.696 2.434,6.337 0.233,0.654 0.388,1.257 0.388,1.926 0.021,0.786 -0.312,1.784 -1.032,2.395 -0.699,0.613 -1.43,0.754 -1.988,0.754 -0.116,-0.007 -0.224,-0.007 -0.335,-0.021 -0.235,0.021 -0.961,0.103 -2.008,0.163 -0.861,0.051 -1.561,0.09 -2.496,0.314 -1.426,0.365 -3.519,0.875 -6.362,0.865 -1.2,0 -2.524,-0.095 -4.01,-0.316 -0.476,-0.09 -5.484,-1.072 -10.732,-5.021 -5.22,-3.904 -10.447,-11.053 -10.379,-22.47 -0.014,-9.156 3.252,-14.886 7.439,-17.932 4.168,-3.054 8.798,-3.497 11.499,-3.497 h 0.067 c 1.236,0 2.106,0.108 2.295,0.137 1.982,0.325 4.447,0.495 6.579,1.527 l 0.604,0.198 c 0.006,0.013 2.66,0.914 5.156,1.267 0.232,0.061 0.87,0.028 1.833,0.435 1.027,0.347 2.083,1.833 2.063,3.082 0.02,0.394 0.043,0.677 0.036,0.977 0,0.231 -0.008,0.455 -0.036,0.672 l 0.015,0.511 c 0.013,0.08 0.005,1.049 0.005,1.18 -0.005,4.051 -0.139,6.829 -0.139,8.906 0.02,2.707 0.134,4.031 0.943,6.047 v -1.257 -0.353 l 0.026,-5.436 0.007,-6.542 c 0,0.067 -0.015,-0.518 -0.054,-1.02 -0.041,-0.44 -0.069,-0.767 -0.069,-1.125 0.028,-0.333 -0.042,-0.68 0.326,-1.466 0.312,-0.836 1.589,-1.398 2.146,-1.392 0.054,0 0.102,0 0.148,0.013 0.38,0.012 0.484,0.048 0.51,0.041 2.321,0.334 5.993,0.875 6.637,0.963 0.741,0.034 2.249,0.646 2.737,1.943 0.421,1.132 0.265,1.628 0.304,2.131 v 0.21 c 0,0.323 -0.006,0.624 -0.017,0.78 L 28.698,5.14 c 0,0.582 0.075,0.93 0.136,1.104 0.251,-0.089 0.712,-0.312 1.033,-0.644 0.618,-0.584 0.847,-0.739 1.452,-1.684 0.583,-0.927 1.411,-2.626 2.529,-5.788 0.234,-0.605 0.441,-1.156 0.978,-1.746 0.497,-0.617 1.591,-1.058 2.284,-0.996 1.008,0.054 1.254,0.229 1.445,0.237 1.282,0.216 4.248,0.474 5.986,0.908 0.488,0.116 0.943,0.423 1.289,0.76 0.259,-0.095 0.515,-0.162 0.789,-0.162 0.054,0 0.093,0 0.147,0.007 0.165,0 0.374,0.019 0.613,0.06 -0.095,-0.013 20.335,2.966 22.058,3.218 0.618,0.101 1.318,0.292 1.983,0.882 0.679,0.583 1.019,1.596 0.991,2.288 C 72.396,3.68 72.383,3.754 72.37,3.842 73.592,2.989 74.923,2.328 76.363,1.9 h 0.011 c 1.392,-0.399 2.866,-0.61 4.372,-0.604 0.801,0 1.629,0.061 2.459,0.177 1.954,0.293 3.752,0.836 5.341,1.684 1.295,0.705 2.857,1.589 4.201,3.106 1.777,2.114 3.095,4.523 4.02,6.709 0.759,-1.284 1.648,-2.443 2.693,-3.429 1.651,-1.596 3.665,-2.761 5.885,-3.407 h 0.007 c 1.417,-0.414 2.884,-0.618 4.404,-0.612 0.79,0 1.611,0.056 2.432,0.17 2.807,0.416 5.361,1.318 7.546,2.729 2.118,1.372 3.978,3.151 5.513,5.26 1.521,2.084 2.674,4.481 3.44,7.102 0.754,2.577 1.133,5.246 1.133,7.938 -0.013,3.032 -0.479,5.813 -1.464,8.259" /></g><g
           transform="translate(15.4512,59.7869)"
           id="g72"><path
             id="path74"
             style="fill:#f5f015;fill-opacity:1;fill-rule:nonzero;stroke:none"
             d="m 0,0 c -0.059,21.375 18.872,25.093 19.06,25.122 4.692,0.682 7.454,0 9.463,-0.503 1.156,-0.28 2.071,-0.337 2.946,-0.384 1.329,-0.072 1.915,-0.192 2.335,-0.165 0.204,0.075 1.223,0.016 0.53,-1.835 -0.224,-0.59 -2.077,-5.426 -2.415,-6.303 -0.342,-0.863 -1.15,-0.793 -1.406,-0.484 -1.65,1.995 -5.262,4.719 -11.921,2.67 -0.91,-0.276 -8.897,-3.1 -8.859,-15.952 0.036,-11.444 5.663,-13.645 8.644,-13.217 2.858,0.414 3.441,1.127 5.027,3.517 l 0.15,0.229 -0.055,9.986 -0.394,0.075 C 21.647,3.028 16.021,2.207 15.775,2.166 13.91,1.892 12.383,3.68 12.383,6.129 c -0.016,2.464 1.506,4.684 3.366,4.962 1.866,0.264 3.393,-1.499 3.408,-3.93 V 6.455 c 0,0 10.501,1.527 14.89,2.164 0.81,0.125 1.792,0.164 0.722,-1.962 -2.88,-5.72 -2.01,-7.337 -1.982,-18.121 v -1.094 l -0.021,-0.692 c 0.041,-0.353 0.047,-0.68 0,-1.37 -0.082,-1.236 -1.073,-1.209 -1.853,-1.326 -2.797,-0.405 -5.586,-1.362 -5.586,-1.362 l -0.741,-0.251 c -1.391,-0.782 -3.952,-1.079 -5.985,-1.372 C 17.839,-19.039 0.054,-21.388 0,0" /></g><g
           transform="translate(81.6597,54.3632)"
           id="g76"><path
             id="path78"
             style="fill:#f5f015;fill-opacity:1;fill-rule:nonzero;stroke:none"
             d="M 0,0 0.026,0.077 -0.02,12.502 0.067,17.27 c 0,0 -0.108,5.083 -0.115,8.493 -0.006,3.422 -0.495,4.583 1.08,4.807 0.827,0.124 19.236,2.804 19.997,2.918 0.758,0.112 0.555,-0.796 0.338,-1.257 -0.224,-0.453 -0.813,-1.91 -1.14,-2.663 -0.318,-0.757 -0.644,-2.94 -1.63,-2.379 -2.815,1.605 -7.208,1.064 -10.501,-0.469 L 7.764,26.566 7.792,19.498 c 0,0 2.92,0.486 3.898,0.626 0.976,0.146 2.007,0.358 2.876,0.988 0.762,0.539 1.698,-0.175 1.595,-1.192 -0.09,-0.8 -0.095,-0.662 -0.073,-2.15 0.008,-0.976 0.013,-1.277 0,-2.07 -0.022,-1.494 -0.816,-1.676 -1.704,-1.355 -1.811,0.657 -1.923,0.479 -2.845,0.343 -0.923,-0.134 -3.76,-0.597 -3.76,-0.597 L 7.813,4.113 8.498,4.156 C 11.959,4.344 18.035,5.6 19.385,6.407 20.41,7.033 20.934,6.837 21.164,6.272 21.387,5.716 21.72,4.731 22.291,3.835 23.538,1.833 24.557,0.332 22.82,0.082 21.097,-0.168 0.638,-3.156 0.638,-3.156 -0.427,-3.393 0.013,-1.404 0,0" /></g><g
           transform="translate(61.9497,74.8053)"
           id="g80"><path
             id="path82"
             style="fill:#f5f015;fill-opacity:1;fill-rule:nonzero;stroke:none"
             d="m 0,0 -0.265,-0.185 0.018,-9.404 0.553,0.265 c 0.691,0.338 6.821,3.409 7.527,6.953 0.211,1.037 -0.043,1.99 -0.76,2.825 C 4.702,3.213 0.194,0.134 0,0 m 16.928,-21.352 c 0.53,-0.571 1.316,-2.722 0.433,-2.953 -1.342,-0.347 -4.355,-0.625 -5.768,-0.86 -1.025,-0.172 -1.473,-0.68 -2.063,0.956 -2.322,6.503 -3.504,7.377 -4.589,8.411 -1.14,1.072 -2.904,1.829 -4.094,0.935 -0.509,-0.388 -1.112,-1.254 -1.105,-3.154 l 0.039,-6.036 c 0,0 0.042,-0.507 0.028,-0.93 -0.013,-1.125 0.054,-1.588 -1.004,-1.743 -0.648,-0.097 -4.318,-0.631 -6.584,-0.958 -0.443,-0.061 -0.517,-0.143 -0.394,1.363 0.047,0.587 0.067,1.216 0.067,1.216 l -0.013,6.557 -0.026,5.41 v 0.374 c 0,0.231 0.005,3.909 0,6.798 0,1.408 -0.023,2.622 -0.028,3.175 -0.015,4.346 -0.706,5.757 1.452,7.007 5.802,3.355 10.82,4.194 15.898,3.223 3.231,-0.605 5.212,-2.833 5.613,-6.268 0.475,-4.129 -1.487,-9.035 -4.868,-12.197 l -0.448,-0.417 2.906,-4.064 c 0,0 4.26,-5.538 4.548,-5.845" /></g><g
           transform="translate(112.4207,55.8578)"
           id="g84"><path
             id="path86"
             style="fill:#f5f015;fill-opacity:1;fill-rule:nonzero;stroke:none"
             d="m 0,0 c -1.839,0.541 -3.473,1.499 -4.833,2.863 -1.37,1.337 -2.462,3.103 -3.25,5.24 -0.774,2.133 -1.174,4.561 -1.174,7.223 -0.013,2.65 0.381,5.199 1.14,7.583 0.773,2.377 1.88,4.532 3.284,6.409 1.38,1.824 3.056,3.351 4.97,4.522 1.9,1.161 3.95,1.906 6.094,2.222 2.84,0.408 4.705,-0.067 6.206,-0.452 0.665,-0.173 1.275,-0.269 1.811,-0.403 0.537,-0.128 1.526,-0.468 2.159,-0.638 0.931,-0.27 0.923,-0.793 0.495,-1.823 -0.231,-0.58 -1.586,-3.814 -1.846,-4.411 -0.394,-0.878 -1.506,-1.002 -2.07,-0.147 -1.744,2.65 -4.934,2.413 -6.387,2.196 L 6.545,30.377 6.571,30.384 6.151,30.32 C 3.368,29.914 0.07,26.239 0.096,17.262 0.116,8.15 3.136,5.333 5.953,5.748 l 0.822,0.123 c 3.252,0.474 6.067,2.972 6.571,7.583 0.157,1.375 1.18,1.715 1.834,1.811 0.494,0.074 2.611,0.298 2.999,0.352 0.407,0.054 0.855,-0.074 0.758,-1.221 C 18.844,12.963 17.038,7.2 13.908,3.643 12.904,2.498 11.621,1.736 10.38,1.063 9.084,0.374 7.548,-0.096 5.825,-0.36 3.769,-0.652 1.808,-0.538 0,0" /></g><g
           transform="translate(147.187,90.3561)"
           id="g88"><path
             id="path90"
             style="fill:#f5f015;fill-opacity:1;fill-rule:nonzero;stroke:none"
             d="m 0,0 c -2.807,-0.415 -5.809,-4.05 -5.783,-13.037 0.028,-9.102 3.041,-11.911 5.853,-11.503 l 0.827,0.119 c 2.796,0.409 5.796,4.789 5.77,13.434 C 6.646,-2.166 3.512,0.508 0.831,0.118 Z m -5.783,-30.264 c -1.857,0.536 -3.515,1.507 -4.928,2.858 -1.424,1.337 -2.578,3.062 -3.407,5.145 -0.842,2.104 -1.27,4.53 -1.275,7.234 -0.008,2.773 0.394,5.396 1.195,7.804 0.795,2.393 1.913,4.542 3.326,6.381 1.384,1.811 3.054,3.306 4.953,4.436 1.876,1.106 3.883,1.829 5.996,2.135 2.097,0.302 4.09,0.178 5.94,-0.371 1.87,-0.556 3.515,-1.487 4.891,-2.773 1.441,-1.367 2.587,-3.105 3.437,-5.186 0.847,-2.098 1.275,-4.581 1.282,-7.367 0.008,-2.471 -0.34,-4.908 -1.032,-7.258 -0.706,-2.39 -1.731,-4.538 -3.075,-6.379 -1.379,-1.887 -3.027,-3.45 -4.881,-4.657 -1.859,-1.201 -4.072,-2.002 -6.583,-2.37 -2.051,-0.298 -4.011,-0.17 -5.839,0.368" /></g><g
           transform="translate(129.1187,46.9712)"
           id="g92"><path
             id="path94"
             style="fill:#110f0d;fill-opacity:1;fill-rule:nonzero;stroke:none"
             d="m 0,0 -0.963,-0.759 -0.007,0.087 -2.007,-0.332 0.842,0.639 z M 10.984,1.033 10.495,0.958 11.193,1.483 C 11.119,1.337 11.044,1.197 10.984,1.033 m -25.033,-3.096 0.569,0.096 -0.569,-0.448 z M 25.786,3.909 C 25.767,5.894 24.911,7.854 23.044,8.574 22.073,8.982 21.03,9.157 19.95,9.157 19.466,9.151 18.972,9.11 18.478,9.036 17.079,8.837 15.762,8.364 14.608,7.615 13.881,7.107 13.305,6.469 12.782,5.696 12.638,5.464 12.517,5.253 12.403,5.044 L 12.368,7.63 -1.12,5.472 V 5.67 L -13.9,3.626 v 0.059 l -1.84,-0.248 -6.142,-0.803 0.054,-1.221 c -0.973,0.475 -2.065,0.657 -3.267,0.657 -0.737,0 -1.525,-0.08 -2.361,-0.201 l -7.013,-1.101 0.471,-11.931 7.568,1.178 -0.164,2.322 c 2.173,0.386 3.801,0.937 5.036,1.874 l 0.152,-3.551 7.192,0.999 0.015,0.094 13.955,1.997 -0.006,0.032 13.48,1.923 -0.103,0.868 c 0.83,-0.4 1.772,-0.582 2.756,-0.575 0.551,0 1.128,0.054 1.725,0.153 0.394,0.062 0.823,0.164 1.271,0.314 v -0.082 l 6.541,0.896 0.374,6.563 z" /></g><g
           transform="translate(103.9702,44.3446)"
           id="g96"><path
             id="path98"
             style="fill:#f5f015;fill-opacity:1;fill-rule:nonzero;stroke:none"
             d="M 0,0 C -0.048,0.28 -0.285,0.469 -0.726,0.571 -1.167,0.672 -1.648,0.644 -2.171,0.504 l -1.298,-0.287 0.076,-1.764 1.418,0.201 c 0.531,0.085 0.999,0.239 1.414,0.504 C -0.147,-0.584 0.034,-0.306 0,0 M 3.062,2.371 C 3.715,1.923 4.033,1.316 4.04,0.556 4.04,-0.198 3.706,-0.916 3.049,-1.596 2.093,-2.58 0.034,-3.278 -3.128,-3.7 l 0.162,-2.313 -4.359,-0.685 -0.349,8.735 5.604,0.883 c 2.384,0.366 4.1,0.183 5.132,-0.549" /></g><g
           transform="translate(113.5899,48.8323)"
           id="g100"><path
             id="path102"
             style="fill:#f5f015;fill-opacity:1;fill-rule:nonzero;stroke:none"
             d="m 0,0 -0.231,-8.817 -4.128,-0.571 -0.351,8.77 z" /></g><g
           transform="translate(127.0975,42.0643)"
           id="g104"><path
             id="path106"
             style="fill:#f5f015;fill-opacity:1;fill-rule:nonzero;stroke:none"
             d="m 0,0 -12.11,-1.723 -0.121,2.034 6.731,5.248 -6.895,-1.168 -0.217,2.409 11.96,1.901 0.026,-2.559 -6.426,-4.844 6.74,1.097 z" /></g><g
           transform="translate(140.5775,44.0337)"
           id="g108"><path
             id="path110"
             style="fill:#f5f015;fill-opacity:1;fill-rule:nonzero;stroke:none"
             d="m 0,0 -12.103,-1.738 -0.128,2.037 6.728,5.258 -6.892,-1.174 -0.217,2.409 11.961,1.916 0.025,-2.574 -6.421,-4.839 6.735,1.085 z" /></g><g
           transform="translate(148.3831,47.744)"
           id="g112"><path
             id="path114"
             style="fill:#f5f015;fill-opacity:1;fill-rule:nonzero;stroke:none"
             d="M 0,0 C 0,0.239 -0.142,0.43 -0.448,0.564 -0.749,0.71 -1.113,0.747 -1.529,0.687 -1.928,0.626 -2.274,0.486 -2.58,0.26 c -0.291,-0.231 -0.44,-0.463 -0.44,-0.7 0,-0.258 0.156,-0.461 0.453,-0.597 0.299,-0.137 0.644,-0.176 1.046,-0.114 0.422,0.052 0.782,0.195 1.081,0.427 C -0.142,-0.495 0,-0.257 0,0 M 4.941,3.077 4.643,-2.094 1.208,-2.573 1.202,-1.926 c -0.36,-0.177 -0.707,-0.347 -1.039,-0.508 -0.856,-0.334 -1.548,-0.545 -2.086,-0.618 -1.715,-0.301 -3.059,-0.117 -3.997,0.555 -0.664,0.463 -0.997,0.985 -1.004,1.562 0,0.516 0.239,1.038 0.719,1.561 0.855,0.903 2.038,1.458 3.529,1.674 0.402,0.064 0.807,0.09 1.229,0.084 C -0.76,2.405 0.049,2.222 0.991,1.842 1.113,3.788 0.816,4.699 0.049,4.596 -0.069,4.576 -0.19,4.535 -0.299,4.475 -0.788,4.231 -1.197,3.777 -1.535,3.105 l -4.14,0.045 c 0.164,0.306 0.334,0.604 0.517,0.89 0.435,0.651 0.889,1.135 1.37,1.466 0.95,0.618 2.029,1.012 3.232,1.181 C 0.842,6.89 2.091,6.769 3.196,6.321 4.297,5.886 4.874,4.795 4.941,3.077" /></g><g
           transform="translate(27.2086,26.1635)"
           id="g116"><path
             id="path118"
             style="fill:#ed1f27;fill-opacity:1;fill-rule:nonzero;stroke:none"
             d="m 0,0 7.643,2.843 0.054,-21.434 -7.996,-0.937 2.052,14.661 -2.642,-0.595 z" /></g><g
           transform="translate(9.4047,18.9209)"
           id="g120"><path
             id="path122"
             style="fill:#ed1f27;fill-opacity:1;fill-rule:nonzero;stroke:none"
             d="M 0,0 0.664,5.757 13.975,10.755 10.37,-0.474 c 0,0 3.551,-2.675 2.384,-6.952 -1.128,-4.194 -4.167,-5.47 -6.307,-6.379 -2.136,-0.923 -6.141,-0.612 -6.141,-0.612 l -0.836,7.182 c 0,0 0.862,-0.544 3.455,-0.312 2.648,0.19 4.046,1.872 4.278,3.42 0.61,3.965 -3.884,1.413 -4.074,1.984 C 2.897,-1.398 8.003,3.461 7.553,3.523 6.129,3.726 0,0 0,0" /></g><g
           transform="translate(75.334,19.9799)"
           id="g124"><path
             id="path126"
             style="fill:#ed1f27;fill-opacity:1;fill-rule:nonzero;stroke:none"
             d="m 0,0 0.849,5.743 13.466,4.575 -3.956,-11.103 c 0,0 3.468,-2.784 2.16,-7.033 -1.259,-4.155 -4.339,-5.333 -6.506,-6.175 -2.163,-0.859 -6.149,-0.424 -6.149,-0.424 l -0.624,7.208 c 0,0 0.856,-0.57 3.448,-0.405 2.645,0.095 4.099,1.738 4.385,3.285 0.732,3.923 -3.841,1.52 -4.006,2.104 C 2.85,-1.48 8.103,3.226 7.663,3.294 6.245,3.543 0,0 0,0" /></g><g
           transform="translate(132.6095,22.3488)"
           id="g128"><path
             id="path130"
             style="fill:#ed1f27;fill-opacity:1;fill-rule:nonzero;stroke:none"
             d="m 0,0 2.456,5.248 14.214,0.513 -6.991,-9.5 c 0,0 2.532,-3.666 0.06,-7.344 -2.395,-3.627 -5.694,-3.87 -8.001,-4.06 -2.317,-0.191 -6.022,1.372 -6.022,1.372 l 1.487,7.073 c 0,0 0.65,-0.788 3.176,-1.385 2.565,-0.666 4.426,0.489 5.145,1.885 1.833,3.571 -3.237,2.581 -3.23,3.177 C 2.307,-2.233 8.68,0.747 8.281,0.95 6.991,1.597 0,0 0,0" /></g><g
           transform="translate(47.47,20.9842)"
           id="g132"><path
             id="path134"
             style="fill:#ed1f27;fill-opacity:1;fill-rule:nonzero;stroke:none"
             d="m 0,0 c 0,0 -3.272,-1.696 -1.664,-5.876 0.042,-0.178 1.142,-3.409 4.278,-2.119 3.007,1.181 2.132,5.364 1.805,6.095 C 2.586,1.46 0,0 0,0 m -1.65,5.636 c 0,0 7.814,4.479 12.341,-3.782 0.909,-1.962 2.485,-12.334 -6.416,-16.582 -9.088,-3.708 -11.977,4.33 -12.209,4.778 -3.53,10.563 6.284,15.586 6.284,15.586" /></g><g
           transform="translate(102.5938,24.9214)"
           id="g136"><path
             id="path138"
             style="fill:#ed1f27;fill-opacity:1;fill-rule:nonzero;stroke:none"
             d="m 0,0 c 0,0 -3.688,-0.013 -4.038,-4.535 0,-0.134 -0.404,-3.543 2.83,-3.8 3.279,-0.041 4.316,4.019 4.316,4.779 C 3.054,0.231 0,0 0,0 m 1.086,5.866 c 0,0 8.993,0.53 9.299,-8.989 0,-1.777 -3.056,-12.012 -12.937,-11.946 -9.694,0.734 -8.891,9.15 -8.891,9.613 C -9.98,5.654 1.086,5.866 1.086,5.866" /></g><g
           transform="translate(73.7388,14.3744)"
           id="g140"><path
             id="path142"
             style="fill:#3777c5;fill-opacity:1;fill-rule:nonzero;stroke:none"
             d="M 0,0 C -0.504,1.275 -1.555,2.443 -2.83,3.216 -4.243,4.032 -5.879,3.839 -7.2,3.028 l 2.571,-7.182 c 0.414,-1.101 0.048,-2.281 -0.712,-3.328 -0.736,-1.046 -1.917,-1.819 -3.048,-2.198 -0.727,-0.216 -1.499,-0.231 -2.091,0 -0.638,0.176 -1.14,0.639 -1.372,1.262 -0.366,0.966 0.041,2.2 0.767,3.189 0.721,1.06 1.813,1.917 2.866,2.24 0.903,0.286 1.764,0.422 2.363,0.151 l -4.904,13.135 0.625,0.224 C -9.537,9.388 -8.891,7.893 -7.025,6.8 -5.524,5.987 -3.971,5.309 -2.837,4.628 -1.283,3.718 -0.368,1.901 0.224,0.407 Z" /></g><g
           transform="translate(128.1423,16.3016)"
           id="g144"><path
             id="path146"
             style="fill:#3777c5;fill-opacity:1;fill-rule:nonzero;stroke:none"
             d="M 0,0 C -0.549,1.264 -1.604,2.446 -2.832,3.217 -4.249,4.032 -5.925,3.844 -7.249,3.025 l 2.571,-7.179 c 0.417,-1.101 0.054,-2.28 -0.711,-3.328 -0.734,-1.003 -1.86,-1.829 -3.047,-2.184 -0.728,-0.232 -1.503,-0.243 -2.098,-0.013 -0.633,0.175 -1.141,0.623 -1.365,1.262 -0.366,0.965 0.041,2.186 0.767,3.192 0.721,1.043 1.811,1.913 2.851,2.238 0.916,0.273 1.779,0.407 2.416,0.134 l -4.94,13.148 0.623,0.226 C -9.53,9.388 -8.938,7.888 -7.073,6.795 -5.565,5.987 -4.017,5.309 -2.837,4.628 -1.331,3.721 -0.414,1.901 0.177,0.407 Z" /></g><g
           transform="translate(159.2834,20.9303)"
           id="g148"><path
             id="path150"
             style="fill:#ed1f27;fill-opacity:1;fill-rule:nonzero;stroke:none"
             d="m 0,0 c 0,0 -3.726,-0.108 -4.127,-4.467 0,-0.188 -0.353,-3.637 2.837,-4.043 3.327,0.012 4.265,4.153 4.49,4.885 C 2.92,0.19 0,0 0,0 m 0.857,5.92 c 0,0 9.231,0.487 9.476,-8.989 -0.036,-2.034 -3.144,-12.285 -12.967,-12.175 -9.746,0.881 -8.809,9.299 -8.809,9.705 1.424,11.206 12.3,11.459 12.3,11.459" /></g></g></g></g></svg>